<?xml version="1.0" standalone="no"?>
<!DOCTYPE svg PUBLIC "-//W3C//DTD SVG 20010904//EN"
 "http://www.w3.org/TR/2001/REC-SVG-20010904/DTD/svg10.dtd">
<svg version="1.0" xmlns="http://www.w3.org/2000/svg"
 width="474.000000pt" height="263.000000pt" viewBox="0 0 474.000000 263.000000"
 preserveAspectRatio="xMidYMid meet">

<g transform="translate(0.000000,263.000000) scale(0.100000,-0.100000)"
fill="#000000" stroke="none">
<path d="M1089 2537 c-41 -31 -47 -99 -12 -129 9 -7 97 -45 197 -84 l181 -71
42 -224 c23 -123 79 -424 123 -669 45 -245 86 -453 91 -462 14 -26 51 -48 81
-48 16 0 28 -3 28 -6 0 -4 -20 -62 -45 -131 -25 -68 -45 -135 -45 -148 0 -40
33 -65 84 -65 l45 0 -30 -56 c-65 -125 -18 -269 111 -337 48 -25 63 -28 120
-25 107 6 182 57 224 148 34 77 25 151 -32 263 -2 4 118 7 267 7 149 0 271 -3
271 -7 0 -3 -7 -14 -16 -24 -23 -25 -43 -88 -44 -135 -1 -100 69 -203 163
-239 56 -21 144 -17 200 10 128 61 181 220 114 339 -15 27 -27 50 -27 52 0 2
23 4 50 4 37 0 55 5 70 20 26 26 26 74 0 100 -20 20 -33 20 -711 20 -380 0
-689 4 -687 8 2 4 18 52 37 105 l34 97 654 0 654 0 23 24 c15 14 38 67 59 132
181 558 311 965 319 994 12 46 -3 85 -39 103 -20 10 -107 18 -308 26 -154 6
-487 20 -740 31 -669 28 -659 28 -683 7 -24 -22 -33 -62 -21 -93 20 -55 0 -53
823 -88 422 -18 768 -35 770 -37 3 -4 -37 -133 -200 -637 l-95 -292 -665 0
c-523 0 -666 3 -669 13 -3 6 -57 296 -120 642 -64 347 -121 645 -126 663 -13
40 -20 43 -260 137 -191 75 -231 85 -260 62z m1021 -2112 c36 -19 50 -43 50
-89 0 -47 -16 -79 -50 -99 -81 -48 -178 15 -166 108 9 78 92 118 166 80z m936
-6 c47 -29 63 -82 39 -133 -39 -82 -149 -89 -195 -14 -25 42 -25 74 0 116 33
54 98 67 156 31z"/>
</g>
</svg>
